PathFileType	4	(x/y/z)	S02_P20_T45
DataRate	CameraRate	NumFrames	NumMarkers	Units	OrigDataRate	OrigDataStartFrame	OrigNumFrames
240	240	6	51	mm	240	174	347
Frame#	Time	Sternum			R.Acromium			L.Acromium			Top.Head			R.ASIS			L.ASIS			R.PSIS			L.PSIS			R.Great.Tro			L.Great.Tro			R.Iliac.Crest			L.Iliac.Crest			V.Sacral			R.Thigh.Upper.Post			R.Thigh.Lower.Ant			R.Thigh.Lower.Post			R.Thigh.Upper.Ant			R.Knee.Lat			R.Knee.Med			R.Shank.Upper.Post			R.Shank.Lower.Ant			R.Shank.Lower.Post			R.Shank.Upper.Ant			R.Ankle.Lat			R.Ankle.Med			R.Heel.Upper			R.Heel.Med			R.Heel.Lat			R.Toe.Lat			R.Toe.Med			R.Toe.Tip			L.Thigh.Upper.Post			L.Thigh.Lower.Ant			L.Thigh.Lower.Post			L.Thigh.Upper.Ant			L.Knee.Lat			L.Knee.Med			L.Shank.Upper.Post			L.Shank.Lower.Ant			L.Shank.Lower.Post			L.Shank.Upper.Ant			L.Ankle.Lat			L.Ankle.Med			L.Heel.Upper			L.Heel.Med			L.Heel.Lat			L.Toe.Lat			L.Toe.Med			L.Toe.Tip			Cervical.Spine			Back			
		X1	Y1	Z1	X2	Y2	Z2	X3	Y3	Z3	X4	Y4	Z4	X5	Y5	Z5	X6	Y6	Z6	X7	Y7	Z7	X8	Y8	Z8	X9	Y9	Z9	X10	Y10	Z10	X11	Y11	Z11	X12	Y12	Z12	X13	Y13	Z13	X14	Y14	Z14	X15	Y15	Z15	X16	Y16	Z16	X17	Y17	Z17	X18	Y18	Z18	X19	Y19	Z19	X20	Y20	Z20	X21	Y21	Z21	X22	Y22	Z22	X23	Y23	Z23	X24	Y24	Z24	X25	Y25	Z25	X26	Y26	Z26	X27	Y27	Z27	X28	Y28	Z28	X29	Y29	Z29	X30	Y30	Z30	X31	Y31	Z31	X32	Y32	Z32	X33	Y33	Z33	X34	Y34	Z34	X35	Y35	Z35	X36	Y36	Z36	X37	Y37	Z37	X38	Y38	Z38	X39	Y39	Z39	X40	Y40	Z40	X41	Y41	Z41	X42	Y42	Z42	X43	Y43	Z43	X44	Y44	Z44	X45	Y45	Z45	X46	Y46	Z46	X47	Y47	Z47	X48	Y48	Z48	X49	Y49	Z49	X50	Y50	Z50	X51	Y51	Z51	

174	0.72083	-336.68	1099.2	302.46	-424.85	1336.7	458.27	-440.22	1349.6	165.55	-354.05	1623.3	321.11	-377.12	937.08	410	-372.53	928.33	200.16	-586.77	985.29	359.75	-592.04	989.02	286.15	-455.65	821.95	497.87	-500.08	834.55	117.61	-477.02	981.45	470.58	-497.61	980.84	140.85	-618.78	941.63	319.69	-440.81	610.05	467.71	-389.02	535.87	420.27	-457.11	523.93	444.94	-377.13	622.08	442.82	-441.31	448	421.82	-464.49	443.86	280.42	-548.66	253.19	405.34	-487.04	164.88	378.44	-552.07	180.45	392.47	-478.92	232.45	397.43	-552.18	88.782	375.38	-545.83	103.6	292.21	-614.67	73.845	320.75	-601.25	41.664	292.94	-610.32	43.15	356.77	-448.29	41.297	397.47	-416.64	33.972	289.86	-368.26	62.211	345.11	-412.92	609.48	130.68	-310	572.37	115.54	-369.05	530.73	147.54	-361.3	652.31	103.37	-297.64	489.86	124.22	-264.23	494.51	263.51	-444.37	383.21	162.98	-427.9	273.09	163.24	-479.94	321.7	181.98	-397.41	341.34	145.72	-513.07	209.91	192.26	-485.29	196.56	270	-571.39	210.24	241.74	-570.13	183.99	275.62	-587.66	184.34	215.81	-465.01	88.185	156.07	-419.26	84.613	255.52	-370.61	67.983	197.81	-505.18	1408.4	320.55	-591.71	1160.7	323.31
175	0.725	-331.09	1100	302.44	-419.16	1337.3	458.24	-434.67	1350.3	165.6	-348.22	1623.6	321.12	-371.98	937.75	410.21	-366.76	929.35	200.56	-581.23	985.76	359.28	-586.36	989.66	285.66	-451.09	822.03	497.66	-493.7	835.6	117.35	-471.85	981.86	470.44	-491.72	981.72	140.8	-613.21	942.23	319.07	-438.32	610.09	467.56	-387.25	535.32	420.28	-455.5	524.12	444.85	-374.42	621.38	442.79	-440.49	447.98	421.8	-463.83	443.97	280.28	-548.48	253.44	405.14	-486.99	165	378.47	-551.99	180.69	392.31	-478.76	232.57	397.43	-552.09	88.887	375.3	-545.75	103.71	292.1	-614.59	73.973	320.68	-601.18	41.781	292.9	-610.28	43.306	356.72	-448.27	41.288	397.45	-416.71	33.922	289.87	-368.22	62.145	345.13	-405.19	610.55	130.71	-301.89	574.17	116.15	-360.8	532.14	147.93	-353.76	653.69	103.53	-288.89	491.74	125.02	-256.06	496.84	264.1	-433.37	381.13	163	-413.99	271.54	163	-467.25	318.73	181.64	-385.29	340.58	145.75	-497.59	205.99	191.57	-469.58	193.14	269.41	-556.07	204.37	240.94	-554.07	177.97	274.69	-571.44	178.02	214.94	-445.76	85.879	155.08	-400.13	83.36	254.63	-350.88	68.436	196.98	-499.47	1408.8	320.59	-586	1161.1	323.42
176	0.72917	-325.49	1100.8	302.42	-413.47	1337.9	458.22	-429.12	1350.9	165.63	-342.4	1623.8	321.1	-366.84	938.37	410.41	-360.99	930.25	200.95	-575.7	986.13	358.78	-580.69	990.2	285.14	-446.49	822.06	497.44	-487.27	836.58	117.04	-466.69	982.2	470.28	-485.82	982.49	140.7	-607.64	942.71	318.42	-435.84	610.11	467.42	-385.49	534.76	420.31	-453.88	524.3	444.77	-371.71	620.67	442.78	-439.65	447.95	421.78	-463.17	444.06	280.14	-548.27	253.68	404.95	-486.94	165.12	378.48	-551.89	180.93	392.16	-478.58	232.68	397.42	-552	88.992	375.22	-545.65	103.81	292	-614.51	74.1	320.59	-601.08	41.902	292.86	-610.24	43.465	356.66	-448.25	41.275	397.42	-416.76	33.871	289.88	-368.17	62.073	345.16	-397.58	611.53	130.79	-293.93	575.81	116.8	-352.73	533.43	148.36	-346.31	654.93	103.72	-280.29	493.49	125.85	-248.11	498.98	264.72	-422.35	378.91	162.96	-400.02	269.93	162.72	-454.5	315.64	181.24	-373.17	339.72	145.76	-481.97	202.01	190.81	-453.74	189.69	268.75	-540.53	198.42	240.07	-537.78	171.93	273.69	-555.01	171.65	214	-426.37	83.628	154.07	-380.91	82.2	253.72	-331.09	68.991	196.15	-493.76	1409.1	320.61	-580.29	1161.4	323.52
177	0.73333	-319.88	1101.5	302.41	-407.78	1338.3	458.19	-423.56	1351.3	165.66	-336.59	1624	321.07	-361.69	938.9	410.6	-355.2	931.04	201.31	-570.17	986.4	358.24	-575.02	990.62	284.59	-441.85	822.04	497.23	-480.81	837.49	116.7	-461.55	982.48	470.1	-479.92	983.15	140.56	-602.05	943.09	317.73	-433.36	610.12	467.29	-383.72	534.19	420.36	-452.25	524.46	444.7	-369.01	619.93	442.79	-438.81	447.91	421.78	-462.49	444.14	280.01	-548.03	253.92	404.79	-486.87	165.23	378.47	-551.77	181.16	392.02	-478.4	232.79	397.41	-551.9	89.099	375.13	-545.53	103.91	291.89	-614.44	74.229	320.49	-600.97	42.025	292.82	-610.19	43.625	356.6	-448.24	41.258	397.4	-416.8	33.82	289.89	-368.12	61.997	345.18	-390.09	612.41	130.91	-286.11	577.31	117.49	-344.82	534.6	148.84	-338.97	656.04	103.95	-271.85	495.12	126.7	-240.39	500.94	265.37	-411.31	376.55	162.87	-386	268.27	162.42	-441.69	312.44	180.79	-361.04	338.79	145.74	-466.2	198	190	-437.77	186.21	268.04	-524.77	192.41	239.11	-521.26	165.87	272.62	-538.34	165.25	212.98	-406.87	81.453	153.04	-361.6	81.145	252.8	-311.28	69.662	195.32	-488.04	1409.3	320.63	-574.58	1161.7	323.62
178	0.7375	-314.26	1102.2	302.4	-402.1	1338.7	458.16	-418.01	1351.7	165.67	-330.78	1624.1	321	-356.53	939.35	410.78	-349.39	931.72	201.65	-564.65	986.57	357.68	-569.34	990.94	284.02	-437.17	821.97	497.03	-474.32	838.31	116.32	-456.41	982.68	469.91	-474.01	983.69	140.38	-596.46	943.35	317.02	-430.89	610.11	467.17	-381.96	533.61	420.44	-450.62	524.61	444.65	-366.32	619.18	442.81	-437.95	447.86	421.79	-461.76	444.2	279.89	-547.76	254.15	404.64	-486.79	165.35	378.45	-551.63	181.4	391.87	-478.19	232.89	397.4	-551.8	89.208	375.03	-545.39	104	291.78	-614.37	74.36	320.38	-600.85	42.152	292.78	-610.14	43.788	356.54	-448.22	41.236	397.37	-416.82	33.769	289.9	-368.06	61.918	345.21	-382.72	613.18	131.07	-278.45	578.64	118.22	-337.08	535.65	149.35	-331.73	657.02	104.21	-263.56	496.61	127.58	-232.88	502.71	266.04	-400.25	374.05	162.73	-371.91	266.59	162.09	-428.81	309.14	180.28	-348.91	337.78	145.7	-450.27	193.96	189.13	-421.66	182.73	267.27	-508.78	186.36	238.08	-504.52	159.81	271.49	-521.44	158.84	211.9	-387.25	79.371	151.99	-342.2	80.21	251.88	-291.43	70.459	194.47	-482.31	1409.4	320.65	-568.88	1161.8	323.7
179	0.74167	-308.63	1102.7	302.4	-396.4	1339	458.14	-412.46	1352	165.67	-324.99	1624.1	320.92	-351.35	939.71	410.95	-343.56	932.27	201.97	-559.13	986.64	357.09	-563.65	991.15	283.41	-432.45	821.86	496.83	-467.79	839.06	115.9	-451.28	982.79	469.7	-468.07	984.11	140.17	-590.85	943.5	316.27	-428.42	610.08	467.06	-380.19	533.02	420.55	-448.99	524.76	444.61	-363.65	618.41	442.87	-437.08	447.81	421.82	-460.98	444.23	279.78	-547.47	254.38	404.5	-486.69	165.47	378.42	-551.46	181.63	391.74	-477.96	232.98	397.39	-551.68	89.319	374.93	-545.22	104.1	291.68	-614.3	74.495	320.26	-600.71	42.282	292.74	-610.09	43.955	356.47	-448.2	41.21	397.34	-416.82	33.72	289.91	-367.99	61.834	345.23	-375.46	613.84	131.26	-270.94	579.8	118.99	-329.52	536.56	149.88	-324.58	657.86	104.51	-255.44	497.95	128.48	-225.59	504.28	266.73	-389.16	371.44	162.53	-357.77	264.89	161.75	-415.87	305.75	179.72	-336.77	336.7	145.64	-434.19	189.93	188.22	-405.43	179.25	266.45	-492.57	180.3	236.99	-487.55	153.77	270.3	-504.32	152.44	210.76	-367.53	77.398	150.92	-322.74	79.405	250.94	-271.58	71.394	193.63	-476.59	1409.5	320.65	-563.19	1161.9	323.78
